<svg width="1666" height="402" viewBox="0 0 1666 402" fill="none" xmlns="http://www.w3.org/2000/svg">
<path fill-rule="evenodd" clip-rule="evenodd" d="M53.0507 178.816H1613.3C1641.92 178.816 1665.33 198.661 1665.33 222.92C1665.33 247.18 1641.92 267.025 1613.3 267.025H53.0507C24.4304 267.025 1.01846 247.18 1.01846 222.92C1.01846 198.661 24.4304 178.816 53.0507 178.816ZM1415.97 313.349H1417.37C1445.99 313.349 1469.41 333.194 1469.41 357.453C1469.41 381.713 1445.99 401.558 1417.37 401.558H1415.97C1387.35 401.558 1363.93 381.713 1363.93 357.453C1363.93 333.194 1387.35 313.349 1415.97 313.349ZM1042.91 313.349C1028.29 313.349 1015.6 302.932 1015.6 290.191C1015.6 277.458 1027.89 267.041 1042.91 267.041H237.625C255.676 267.041 264.936 277.458 264.936 290.191C264.936 302.932 252.647 313.349 237.625 313.349H188.45C159.829 313.349 136.417 333.194 136.417 357.453C136.417 381.713 159.829 401.558 188.45 401.558H1263.58C1292.2 401.558 1315.61 381.713 1315.61 357.453C1315.61 333.194 1292.2 313.349 1263.58 313.349H1042.91Z" fill="white"/>
<path fill-rule="evenodd" clip-rule="evenodd" d="M53.0507 178.816H1613.3C1641.92 178.816 1665.33 198.661 1665.33 222.92C1665.33 225.367 1665.09 227.764 1664.63 230.105H1.71603C1.25734 227.764 1.01846 225.367 1.01846 222.92C1.01846 198.661 24.4304 178.816 53.0507 178.816Z" fill="#D7E5F5"/>
<path fill-rule="evenodd" clip-rule="evenodd" d="M53.0507 178.816H1613.3C1641.92 178.816 1665.33 198.661 1665.33 222.92C1665.33 247.18 1641.92 267.025 1613.3 267.025H53.0507C24.4304 267.025 1.01846 247.18 1.01846 222.92C1.01846 198.661 24.4304 178.816 53.0507 178.816Z" fill="#D7E5F5"/>
<path fill-rule="evenodd" clip-rule="evenodd" d="M53.0507 178.816H1613.3C1641.92 178.816 1665.33 198.661 1665.33 222.92C1665.33 225.367 1665.09 227.764 1664.63 230.105H1.71603C1.25734 227.764 1.01846 225.367 1.01846 222.92C1.01846 198.661 24.4304 178.816 53.0507 178.816Z" fill="#D7E5F5" stroke="#D7E5F5" stroke-width="0.216" stroke-miterlimit="22.9256"/>
<path fill-rule="evenodd" clip-rule="evenodd" d="M893.252 186.649L892.899 186.957C886.066 139.871 838.726 103.421 781.342 103.421C772.398 103.421 763.711 104.312 755.388 105.981C734.336 45.0933 667.96 0.632324 589.324 0.632324C509.885 0.632324 442.974 46.0004 422.629 107.82C411.946 104.96 400.574 103.413 388.782 103.413C344.337 103.413 305.912 125.291 287.67 157.035C275.075 148.498 259.097 143.395 241.705 143.395C207.829 143.395 179.305 162.762 170.676 189.136H893.243V186.649H893.252Z" fill="#D7E5F5"/>
<path fill-rule="evenodd" clip-rule="evenodd" d="M888.111 264.806L887.806 265.081C881.69 222.961 839.337 190.351 788.003 190.351C780.014 190.351 772.245 191.144 764.791 192.635C745.947 138.17 686.575 98.3994 616.234 98.3994C545.175 98.3994 485.326 138.972 467.122 194.279C457.556 191.728 447.389 190.351 436.839 190.351C397.076 190.351 362.703 209.912 346.391 238.311C335.115 230.68 320.819 226.112 305.272 226.112C274.97 226.112 249.446 243.438 241.734 267.033H888.111V264.806Z" fill="white"/>
<path fill-rule="evenodd" clip-rule="evenodd" d="M1118.36 187.856L1118.54 188.018C1122.09 163.507 1146.74 144.529 1176.62 144.529C1181.27 144.529 1185.8 144.99 1190.13 145.857C1201.09 114.154 1235.65 91.012 1276.59 91.012C1317.95 91.012 1352.79 114.632 1363.38 146.821C1368.94 145.331 1374.87 144.537 1381.01 144.537C1404.15 144.537 1424.16 155.917 1433.65 172.449C1440.21 168.003 1448.53 165.346 1457.58 165.346C1475.22 165.346 1490.07 175.422 1494.56 189.16H1118.36V187.856Z" fill="#D7E5F5"/>
</svg>
