<svg  viewBox="0 0 1660 522" fill="none" xmlns="http://www.w3.org/2000/svg">
<path fill-rule="evenodd" clip-rule="evenodd" d="M651.237 0.79895C802.298 0.79895 929.565 87.064 968.257 204.652C988.574 199.225 1010.2 196.284 1032.62 196.284C1117.17 196.284 1190.22 237.886 1224.91 298.255C1248.88 282.023 1279.27 272.311 1312.32 272.311C1389.74 272.311 1452.5 325.504 1452.5 391.122C1452.5 410.918 1446.77 429.589 1436.67 445.999H1514.83C1539.21 445.999 1559.15 462.896 1559.15 483.567C1559.15 504.23 1539.21 521.135 1514.83 521.135H44.9567C20.5794 521.135 0.635986 504.23 0.635986 483.567C0.635986 462.904 20.5794 445.999 44.9567 445.999H88.1019C77.9057 424.858 72.2867 401.733 72.2867 377.481C72.2867 277.406 168 196.268 286.064 196.268C303.055 196.268 319.577 197.953 335.421 201.128C375.461 85.363 501.695 0.79895 651.237 0.79895ZM1614.4 446.007H1615.6C1639.97 446.007 1659.92 462.904 1659.92 483.575C1659.92 504.238 1639.97 521.143 1615.6 521.143H1614.4C1590.02 521.143 1570.08 504.238 1570.08 483.575C1570.08 462.904 1590.03 446.007 1614.4 446.007Z" fill="#D7E5F5"/>
<path fill-rule="evenodd" clip-rule="evenodd" d="M1311.26 521.135H243.98C239.058 507.77 236.411 493.562 236.411 478.82C236.411 400.404 311.407 336.844 403.899 336.844C417.211 336.844 430.159 338.172 442.572 340.651C473.945 249.939 572.84 183.689 690.006 183.689C808.357 183.689 908.064 251.275 938.376 343.397C954.296 339.144 971.239 336.844 988.803 336.844C1055.05 336.844 1112.29 369.438 1139.46 416.734C1158.24 404.017 1182.04 396.411 1207.95 396.411C1268.6 396.411 1317.77 438.086 1317.77 489.496C1317.77 500.61 1315.47 511.261 1311.26 521.135Z" fill="white"/>
</svg>
