<svg width="1685" height="605" viewBox="0 0 1685 605" fill="none" xmlns="http://www.w3.org/2000/svg">
<path fill-rule="evenodd" clip-rule="evenodd" d="M295.354 232.72C312.373 232.72 328.695 235.263 343.822 239.897C342.57 231.278 341.92 222.49 341.92 213.58C341.92 96.0325 454.337 0.752136 593.004 0.752136C670.475 0.752136 739.746 30.5035 785.816 77.2567C804.717 61.7452 830.48 52.1872 858.881 52.1872C916.905 52.1872 963.949 92.0635 963.949 141.247C963.949 141.927 963.94 142.599 963.92 143.28C988.766 149.039 1010.01 162.193 1024.16 179.778C1062.88 108.012 1148.3 58.1325 1247.49 58.1325C1375.84 58.1325 1481.15 141.635 1491.99 248.037C1546.62 263.265 1586.05 306.843 1586.05 358.229C1586.05 371.108 1583.58 383.493 1579.01 395.068H1638.22C1663.91 395.068 1684.92 412.872 1684.92 434.645C1684.92 456.418 1663.91 474.23 1638.22 474.23H1453.46H1449.22H1247.5H295.354H47.548C21.8614 474.23 0.857178 456.418 0.857178 434.645C0.857178 412.872 21.8614 395.068 47.548 395.068H161.58C155.961 382.092 152.903 368.087 152.903 353.467C152.903 286.788 216.67 232.72 295.354 232.72Z" fill="#D7E5F5"/>
<path fill-rule="evenodd" clip-rule="evenodd" d="M1379.64 519.014H1332.08C1317.55 519.014 1305.66 508.938 1305.66 496.626C1305.66 484.306 1314.63 474.23 1332.08 474.23H1372.08C1375.14 466.049 1376.81 457.333 1376.81 448.293C1376.81 410.45 1347.78 378.366 1307.56 367.156C1299.57 288.821 1222.04 227.342 1127.55 227.342C1054.52 227.342 991.623 264.059 963.127 316.895C952.711 303.951 937.058 294.272 918.768 290.028C918.787 289.533 918.787 289.031 918.787 288.537C918.787 252.314 884.156 222.959 841.432 222.959C820.523 222.959 801.564 229.99 787.641 241.411C753.727 206.986 702.726 185.084 645.686 185.084C543.59 185.084 460.826 255.238 460.826 341.778C460.826 348.339 461.313 354.803 462.23 361.153C451.088 357.735 439.067 355.872 426.548 355.872C368.62 355.872 321.662 395.676 321.662 444.778C321.662 455.097 323.735 465.012 327.548 474.23H553.328C567.862 474.23 579.75 484.298 579.75 496.618C579.75 508.93 567.48 519.014 553.328 519.014H480.148C452.474 519.014 429.816 538.211 429.816 561.677C429.816 585.135 452.464 604.332 480.148 604.332H1379.63C1407.31 604.332 1429.96 585.135 1429.96 561.677C1429.96 538.211 1407.32 519.014 1379.64 519.014ZM317.514 519.014C345.179 519.014 367.836 538.211 367.836 561.677C367.836 585.135 345.188 604.332 317.514 604.332H316.148C288.464 604.332 265.826 585.135 265.826 561.677C265.826 538.22 288.464 519.014 316.148 519.014H317.514Z" fill="white"/>
</svg>
