<svg width="1780" height="395" viewBox="0 0 1780 395" fill="none" xmlns="http://www.w3.org/2000/svg">
<path fill-rule="evenodd" clip-rule="evenodd" d="M698.795 0.776367C585.757 0.776367 490.512 65.3334 461.567 153.316C446.364 149.249 430.185 147.062 413.395 147.062C350.135 147.062 295.455 178.199 269.501 223.364C251.565 211.223 228.821 203.949 204.081 203.949C146.143 203.949 99.1846 243.76 99.1846 292.871C99.1846 298.298 99.7675 303.603 100.857 308.771H50.6879C22.8513 308.771 0.0793457 328.073 0.0793457 351.668C0.0793457 375.256 22.8513 394.566 50.6879 394.566H1729.12C1756.96 394.566 1779.73 375.256 1779.73 351.668C1779.73 348.85 1779.41 346.096 1778.79 343.431C1779.4 340.28 1779.73 337.056 1779.73 333.768C1779.73 301.562 1748.92 275.439 1710.92 275.439C1694.69 275.439 1679.77 280.21 1668 288.173C1650.97 258.535 1615.11 238.107 1573.6 238.107C1562.59 238.107 1551.96 239.556 1542 242.221C1523 184.493 1460.52 142.146 1386.36 142.146C1312.93 142.146 1250.97 183.658 1231.3 240.504C1223.52 238.949 1215.41 238.115 1207.08 238.115C1177.04 238.115 1149.96 248.807 1130.83 265.954C1121.1 198.959 1053.73 147.071 972.058 147.071C959.349 147.071 946.993 148.326 935.134 150.699C905.166 64.0536 810.705 0.776367 698.795 0.776367Z" fill="#D7E5F5"/>
<path fill-rule="evenodd" clip-rule="evenodd" d="M241.579 394.558H1672.98C1669.91 370.963 1646.32 352.608 1617.67 352.608C1604.55 352.608 1592.48 356.464 1582.97 362.903C1569.2 338.935 1540.19 322.419 1506.64 322.419C1497.72 322.419 1489.15 323.594 1481.09 325.741C1465.73 279.06 1415.21 244.821 1355.23 244.821C1295.86 244.821 1245.76 278.396 1229.86 324.347C1223.57 323.092 1217.01 322.419 1210.27 322.419C1185.98 322.419 1164.09 331.07 1148.61 344.921C1140.75 290.748 1086.28 248.799 1020.23 248.799C1009.95 248.799 999.952 249.819 990.368 251.739C966.134 181.682 889.752 130.514 799.267 130.514C707.864 130.514 630.852 182.711 607.449 253.861C595.16 250.581 582.068 248.799 568.499 248.799C517.336 248.799 473.14 273.965 452.145 310.496C437.639 300.679 419.263 294.798 399.253 294.798C352.409 294.798 314.434 326.988 314.434 366.686C314.434 371.076 314.902 375.377 315.791 379.549H275.225C261.321 379.565 248.985 385.519 241.579 394.558Z" fill="white"/>
<path fill-rule="evenodd" clip-rule="evenodd" d="M239.209 269.551H238.177C216.943 269.551 199.57 284.277 199.57 302.267V302.275C199.57 320.273 216.943 334.991 238.177 334.991H239.209C260.442 334.991 277.815 320.273 277.815 302.275V302.267C277.825 284.277 260.442 269.551 239.209 269.551Z" fill="white"/>
</svg>
