<svg width="3924" height="724" viewBox="0 0 3924 724" fill="none" xmlns="http://www.w3.org/2000/svg">
<path fill-rule="evenodd" clip-rule="evenodd" d="M59.2177 493.541H159.747C158.591 487.385 157.969 481.075 157.969 474.636C157.969 409.171 220.59 356.084 297.831 356.084C326.365 356.084 352.902 363.342 375.024 375.775C384.886 344.914 418.151 322.226 457.665 322.226C470.498 322.226 482.663 324.624 493.595 328.901C520.715 236.139 619.572 167.378 737.397 167.378C823.879 167.378 900.146 204.428 945.326 260.82C970.621 237.589 1006.85 223.025 1047.08 223.025C1086.98 223.025 1122.94 237.346 1148.2 260.245C1169.46 113.813 1316.71 0.429443 1495.22 0.429443C1688.32 0.429443 1844.87 133.132 1844.87 296.817C1844.87 303.256 1844.63 309.647 1844.14 315.989L1845.22 315.835C1849.79 265.267 1899.64 225.447 1960.47 225.447C2024.32 225.447 2076.08 269.317 2076.08 323.433C2076.08 329.897 2075.32 336.215 2073.92 342.33C2081.32 340.273 2089.25 339.147 2097.48 339.147C2139.26 339.147 2173.13 367.854 2173.13 403.267C2173.13 409.569 2172.05 415.66 2170.05 421.411H2332.95C2331.11 416.04 2330.11 410.354 2330.11 404.474C2330.11 376.942 2351.82 353.695 2381.54 346.38C2383.06 302.081 2425.9 266.571 2478.53 266.571C2500.39 266.571 2520.57 272.703 2536.8 283.046C2566.87 250.898 2613.34 230.275 2665.49 230.275C2671.29 230.275 2677.02 230.526 2682.66 231.028C2725.05 119.694 2848.28 39.1393 2993.74 39.1393C3138.89 39.1393 3261.91 119.345 3304.53 230.324C3310.69 229.497 3316.99 229.068 3323.41 229.068C3377.24 229.068 3422.77 259.127 3437.92 300.526C3449.23 298.104 3461.08 296.817 3473.26 296.817C3541.07 296.817 3597.92 336.506 3613.29 389.974H3617.39V392.874C3626.55 390.979 3636.11 389.974 3645.94 389.974C3712.15 389.974 3765.82 435.464 3765.82 491.581C3765.82 492.245 3765.81 492.893 3765.79 493.549H3864.57C3896.91 493.549 3923.35 515.97 3923.35 543.372C3923.35 570.775 3896.91 593.196 3864.57 593.196H3645.94H3617.39H3318.97H297.831H59.2177C26.8897 593.196 0.438721 570.767 0.438721 543.372C0.438721 515.954 26.8897 493.541 59.2177 493.541Z" fill="#D7E5F5"/>
<path fill-rule="evenodd" clip-rule="evenodd" d="M3445.54 75.3787H3447.13C3479.45 75.3787 3505.9 97.7995 3505.9 125.202C3505.9 152.604 3479.45 175.025 3447.13 175.025H3445.54C3413.2 175.025 3386.76 152.596 3386.76 125.202C3386.76 97.7914 3413.2 75.3787 3445.54 75.3787Z" fill="#D7E5F5"/>
<path fill-rule="evenodd" clip-rule="evenodd" d="M3556.91 198.288H3558.01C3580.48 198.288 3598.85 213.864 3598.85 232.899C3598.85 251.934 3580.47 267.511 3558.01 267.511H3556.91C3534.46 267.511 3516.08 251.926 3516.08 232.899C3516.08 213.864 3534.47 198.288 3556.91 198.288Z" fill="#D7E5F5"/>
<path fill-rule="evenodd" clip-rule="evenodd" d="M2611.21 104.288H2612.31C2634.78 104.288 2653.15 119.864 2653.15 138.899C2653.15 157.934 2634.77 173.51 2612.31 173.51H2611.21C2588.75 173.51 2570.38 157.926 2570.38 138.899C2570.37 119.864 2588.75 104.288 2611.21 104.288Z" fill="#D7E5F5"/>
<path fill-rule="evenodd" clip-rule="evenodd" d="M2364.56 481.48C2338.33 487.936 2319.15 508.445 2319.15 532.762C2319.15 537.954 2320.04 542.967 2321.67 547.714H2177.86C2179.63 542.635 2180.57 537.257 2180.57 531.684C2180.57 500.426 2150.68 475.081 2113.8 475.081C2106.53 475.081 2099.54 476.069 2092.99 477.892C2094.23 472.497 2094.89 466.925 2094.89 461.214C2094.89 413.432 2049.21 374.706 1992.84 374.706C1939.13 374.706 1895.12 409.868 1891.08 454.507L1890.14 454.645C1890.56 449.048 1890.77 443.402 1890.77 437.716C1890.77 388.703 1874.87 342.841 1847.2 303.621C1846.24 307.606 1845.56 311.68 1845.19 315.835L1844.12 315.989C1844.51 310.789 1844.74 305.565 1844.81 300.3C1790.43 225.739 1693.09 176.062 1582.08 176.062C1424.5 176.062 1294.51 276.153 1275.74 405.429C1253.44 385.22 1221.7 372.576 1186.47 372.576C1150.94 372.576 1118.97 385.422 1096.64 405.94C1056.75 356.149 989.418 323.441 913.065 323.441C809.058 323.441 721.773 384.143 697.845 466.034C688.194 462.251 677.453 460.137 666.138 460.137C631.249 460.137 601.874 480.176 593.169 507.417C573.636 496.441 550.215 490.034 525.025 490.034C457.426 490.034 402.527 536.074 401.561 593.171H1596.05C1610.57 593.171 1622.46 603.24 1622.46 615.568C1622.46 627.88 1581.91 637.956 1596.05 637.956H1522.86C1495.19 637.956 1472.53 657.153 1472.53 680.619C1472.53 704.085 1495.18 723.273 1522.86 723.273H3340.13C3367.81 723.273 3390.45 704.085 3390.45 680.619C3390.45 657.161 3367.81 637.956 3340.13 637.956H3237.16C3222.63 637.956 3210.74 627.88 3210.74 615.568C3210.74 603.248 3254.61 593.171 3237.16 593.171H3318.95H3584.85C3575.72 551.489 3532.6 519.931 3480.79 519.931C3472.11 519.931 3463.67 520.822 3455.58 522.491V519.931H3451.96C3438.39 472.732 3388.19 437.692 3328.34 437.692C3317.58 437.692 3307.11 438.834 3297.13 440.964C3283.76 404.417 3243.55 377.881 3196.04 377.881C3190.37 377.881 3184.79 378.262 3179.38 378.991C3141.73 281.03 3033.13 210.219 2904.99 210.219C2776.58 210.219 2667.8 281.329 2630.38 379.623C2625.41 379.177 2620.34 378.959 2615.22 378.959C2569.18 378.959 2528.15 397.159 2501.61 425.542C2487.28 416.413 2469.47 411.002 2450.17 411.002C2403.73 411.018 2365.91 442.365 2364.56 481.48ZM1360.24 637.972C1387.91 637.972 1410.56 657.169 1410.56 680.635C1410.56 704.101 1387.91 723.29 1360.24 723.29H1358.87C1331.2 723.29 1308.55 704.101 1308.55 680.635C1308.55 657.177 1331.19 637.972 1358.87 637.972H1360.24Z" fill="white"/>
</svg>
