<svg width="2560" height="692" viewBox="0 0 2560 692" fill="none" xmlns="http://www.w3.org/2000/svg">
<path fill-rule="evenodd" clip-rule="evenodd" d="M41.6279 490.873H168.933C166.898 483.988 165.818 475.961 165.818 466.565C165.818 387.258 241.673 322.968 335.236 322.968C373.097 322.968 408.053 333.498 436.262 351.294C436.214 349.957 436.195 348.621 436.195 347.276C436.195 267.969 512.041 203.679 605.604 203.679C659.012 203.679 706.63 224.634 737.677 257.366C760.803 247.33 787.005 241.676 814.766 241.676C824.083 241.676 833.199 242.324 842.096 243.547C842.086 242.924 842.067 242.3 842.067 241.676C842.067 162.369 917.923 98.0795 1011.47 98.0795C1046.13 98.0795 1078.35 106.908 1105.19 122.047C1142.29 50.4515 1226.66 0.442078 1324.82 0.442078C1440.08 0.442078 1536.34 69.3893 1559.34 161.284C1581.86 151.904 1607.19 146.623 1633.97 146.623C1713.73 146.623 1780.59 193.335 1798.6 256.248C1821.07 246.925 1846.32 241.676 1873.02 241.676C1953.18 241.676 2020.34 288.875 2037.92 352.282C2062 319.566 2104.83 297.793 2153.66 297.793C2228.94 297.793 2289.96 349.52 2289.96 413.331C2289.96 443.18 2276.61 470.38 2254.69 490.881H2402.26C2425.08 490.881 2443.74 506.708 2443.74 526.043C2443.74 545.386 2425.08 561.205 2402.26 561.205H41.6279C18.8082 561.205 0.145264 545.386 0.145264 526.043C0.145264 506.692 18.8082 490.873 41.6279 490.873ZM2517.32 490.873H2518.43C2541.26 490.873 2559.92 506.7 2559.92 526.035C2559.92 545.378 2541.26 561.197 2518.43 561.197H2517.32C2494.5 561.197 2475.84 545.378 2475.84 526.035C2475.84 506.692 2494.5 490.873 2517.32 490.873Z" fill="#D7E5F5"/>
<path fill-rule="evenodd" clip-rule="evenodd" d="M374.511 605.974H422.071C436.606 605.974 448.494 595.897 448.494 583.577C448.494 571.257 439.521 561.181 422.071 561.181H293.008C294.919 483.283 370.029 420.63 462.388 420.63C515.797 420.63 563.414 441.584 594.471 474.316C617.587 464.28 643.79 458.619 671.54 458.619C680.857 458.619 689.974 459.267 698.87 460.49C698.861 459.866 698.842 459.242 698.842 458.619C698.842 379.32 774.697 315.022 868.241 315.022C902.901 315.022 935.124 323.851 961.966 338.99C999.063 267.394 1083.43 217.384 1181.59 217.384C1296.85 217.384 1393.11 286.332 1416.12 378.218C1438.64 368.838 1463.96 363.557 1490.75 363.557C1570.5 363.557 1637.37 410.27 1655.38 473.182C1677.84 463.859 1703.09 458.61 1729.79 458.61C1806.53 458.61 1871.34 501.856 1892.18 561.173H1200.81C1186.27 561.173 1174.39 571.249 1174.39 583.569C1174.39 595.889 1186.66 605.966 1200.81 605.966H1414.2C1441.89 605.966 1464.53 625.163 1464.53 648.62C1464.53 672.078 1441.89 691.275 1414.2 691.275H374.511C346.837 691.275 324.189 672.078 324.189 648.62C324.189 625.171 346.827 605.974 374.511 605.974ZM1561.58 605.974C1533.89 605.974 1511.25 625.171 1511.25 648.628C1511.25 672.086 1533.89 691.283 1561.58 691.283H1562.93C1590.61 691.283 1613.26 672.086 1613.26 648.628C1613.26 625.171 1590.62 605.974 1562.93 605.974H1561.58Z" fill="white"/>
</svg>
