<svg width="1327" height="626" viewBox="0 0 1327 626" fill="none" xmlns="http://www.w3.org/2000/svg">
<path fill-rule="evenodd" clip-rule="evenodd" d="M222.658 209.154C129.095 209.154 53.2489 273.451 53.2489 352.75C53.2489 379.521 61.8875 404.574 76.9382 426.023H41.5619C18.7422 426.023 0.0793457 441.842 0.0793457 461.185C0.0793457 480.52 18.7422 496.347 41.5619 496.347H112.104H222.648H588.624H986.106H1084.03H1084.2H1084.26H1285.32C1308.14 496.347 1326.81 480.52 1326.81 461.185C1326.81 441.842 1308.14 426.023 1285.32 426.023H1229.91C1244.96 404.574 1253.61 379.513 1253.61 352.75C1253.61 273.443 1177.75 209.154 1084.19 209.154C1057.54 209.154 1032.32 214.378 1009.88 223.677C1005.06 186.222 967.634 157.071 922.157 157.071C901.411 157.071 882.347 163.137 867.286 173.287C829.712 73.187 719.168 0.659607 588.624 0.659607C436.903 0.659607 312.178 98.6048 297.653 223.969C275.044 214.492 249.586 209.154 222.658 209.154Z" fill="#D7E5F5"/>
<path fill-rule="evenodd" clip-rule="evenodd" d="M1207.88 539.974H1209.25C1236.91 539.974 1259.57 559.171 1259.57 582.628C1259.57 606.086 1236.92 625.283 1209.25 625.283H1207.88C1180.21 625.283 1157.56 606.086 1157.56 582.628C1157.56 559.171 1180.21 539.974 1207.88 539.974ZM145.751 539.974H193.311C207.846 539.974 219.734 529.897 219.734 517.577C219.734 507.736 214 499.328 202.8 496.339H192.881C176.684 496.339 163.43 485.104 163.43 471.375C163.43 457.645 176.684 446.411 192.881 446.411H218.004C207.32 431.183 201.176 413.387 201.176 394.376C201.176 338.065 255.043 292.413 321.476 292.413C340.598 292.413 358.678 296.204 374.722 302.927C385.043 213.916 473.608 144.362 581.333 144.362C674.026 144.362 752.528 195.862 779.209 266.939C789.902 259.73 803.443 255.421 818.169 255.421C850.458 255.421 877.033 276.124 880.464 302.717C896.394 296.115 914.302 292.405 933.223 292.405C999.656 292.405 1053.51 338.057 1053.51 394.368C1053.51 413.379 1047.37 431.166 1036.69 446.403H1076.04C1092.23 446.403 1105.49 457.637 1105.49 471.367C1105.49 485.096 1092.23 496.331 1076.04 496.331H963.687C953.223 499.312 945.636 507.728 945.636 517.569C945.636 529.889 957.906 539.966 972.049 539.966H1045.24C1072.91 539.966 1095.57 559.163 1095.57 582.62C1095.57 606.078 1072.92 625.275 1045.24 625.275H145.751C118.077 625.275 95.4196 606.078 95.4196 582.62C95.4291 559.171 118.077 539.974 145.751 539.974Z" fill="white"/>
</svg>
