<svg width="1980" height="643" viewBox="0 0 1980 643" fill="none" xmlns="http://www.w3.org/2000/svg">
<path fill-rule="evenodd" clip-rule="evenodd" d="M61.9831 378.025H174.113C150.644 358.69 136.052 331.644 136.052 301.715C136.052 242.949 192.25 195.321 261.57 195.321C283.606 195.321 304.304 200.133 322.289 208.581C333.087 166.242 377.513 134.514 430.692 134.514C439.56 134.514 448.17 135.397 456.426 137.066C470.34 59.7758 549.1 0.556702 644.173 0.556702C732.403 0.556702 806.577 51.5624 827.925 120.68C846.33 107.995 869.799 100.389 895.371 100.389C932.602 100.389 965.388 116.508 984.548 140.962C1019.36 107.347 1070.42 86.1169 1127.33 86.1169C1203.47 86.1169 1269.13 124.09 1299.42 178.911C1320.77 167.903 1345.85 161.552 1372.67 161.552C1426.66 161.552 1473.57 187.237 1497.31 224.983C1507.06 204.426 1530.79 189.91 1558.53 189.91C1594.95 189.91 1624.47 214.939 1624.47 245.809C1624.47 247.064 1624.42 248.311 1624.32 249.543C1642.87 236.429 1666.74 228.539 1692.79 228.539C1751.89 228.539 1799.78 269.137 1799.78 319.227C1799.78 341.672 1790.16 362.197 1774.23 378.033H1917.5C1951.55 378.033 1979.39 401.636 1979.39 430.489C1979.39 459.349 1951.55 482.952 1917.5 482.952H61.9831C27.9351 482.952 0.0888672 459.349 0.0888672 430.489C0.0888672 401.628 27.9351 378.025 61.9831 378.025ZM1462.01 79.7989C1439.55 79.7989 1421.18 95.3752 1421.18 114.418C1421.18 133.461 1439.56 149.03 1462.01 149.03H1463.11C1485.57 149.03 1503.95 133.453 1503.95 114.418C1503.95 95.3833 1485.56 79.7989 1463.11 79.7989H1462.01Z" fill="#D7E5F5"/>
<path fill-rule="evenodd" clip-rule="evenodd" d="M221.129 407.841H301.39C284.58 394.006 274.136 374.647 274.136 353.223C274.136 311.167 314.367 277.074 363.981 277.074C379.739 277.074 394.56 280.517 407.442 286.568C415.173 256.266 446.975 233.553 485.037 233.553C491.372 233.553 497.546 234.185 503.461 235.376C513.418 180.053 569.789 137.665 637.847 137.665C701.002 137.665 754.105 174.172 769.375 223.647C782.553 214.567 799.353 209.124 817.662 209.124C844.304 209.124 867.764 220.658 881.486 238.162C906.399 214.097 942.96 198.901 983.697 198.901C1038.19 198.901 1085.18 226.077 1106.86 265.321C1122.15 257.432 1140.11 252.896 1159.31 252.896C1197.94 252.896 1231.52 271.291 1248.51 298.296C1255.49 283.587 1272.48 273.186 1292.34 273.186C1318.41 273.186 1339.54 291.104 1339.54 313.2C1339.54 314.1 1339.51 314.999 1339.44 315.874C1352.72 306.494 1369.81 300.84 1388.45 300.84C1430.75 300.84 1465.03 329.903 1465.03 365.753C1465.03 381.816 1458.14 396.517 1446.75 407.841H1549.3C1573.67 407.841 1593.6 424.746 1593.6 445.392C1593.6 466.047 1573.67 482.944 1549.3 482.944H221.129C196.761 482.944 176.827 466.047 176.827 445.392C176.827 424.746 196.761 407.841 221.129 407.841ZM1682.83 538.016H1684.51C1718.53 538.016 1746.4 561.619 1746.4 590.464C1746.4 619.316 1718.54 642.919 1684.51 642.919H1682.83C1648.79 642.919 1620.95 619.316 1620.95 590.464C1620.95 561.619 1648.79 538.016 1682.83 538.016ZM1239.17 538.016C1221.79 538.016 1206.69 525.623 1206.69 510.476C1206.69 495.329 1221.31 482.944 1239.17 482.944H281.475C302.938 482.944 313.965 495.329 313.965 510.476C313.965 525.623 299.345 538.016 281.475 538.016H222.992C188.954 538.016 161.107 561.619 161.107 590.464C161.107 619.316 188.954 642.919 222.992 642.919H1501.6C1535.63 642.919 1563.48 619.316 1563.48 590.464C1563.48 561.619 1535.63 538.016 1501.6 538.016H1239.17Z" fill="white"/>
</svg>
