<svg viewBox="0 0 2209 464" fill="none" xmlns="http://www.w3.org/2000/svg">
<path fill-rule="evenodd" clip-rule="evenodd" d="M1379.97 193.668C1339.94 193.668 1305.35 213.522 1289.21 242.244C1271.96 235.594 1252.81 231.884 1232.64 231.884C1231.99 231.884 1231.34 231.901 1230.7 231.909C1231.97 225.566 1232.64 219.046 1232.64 212.396C1232.64 148.422 1171.46 96.5657 1095.98 96.5657C1058.36 96.5657 1024.29 109.453 999.57 130.31C974.858 109.453 940.791 96.5657 903.16 96.5657C879.069 96.5657 856.44 101.855 836.793 111.13C810.743 46.6778 738.653 0.345825 653.796 0.345825C568.327 0.345825 495.816 47.342 470.235 112.507C449.938 102.382 426.286 96.5657 401.04 96.5657C325.566 96.5657 264.379 148.422 264.379 212.396C264.379 219.24 265.086 225.939 266.434 232.459C261.933 232.079 257.384 231.884 252.769 231.884C177.295 231.884 116.118 283.74 116.118 347.714C116.118 362.035 119.185 375.748 124.795 388.409H44.4001C20.0227 388.409 0.0793457 405.313 0.0793457 425.977C0.0793457 446.64 20.0227 463.552 44.4001 463.552H252.769H311.863H1200.27H1232.65H1232.98H1270.65H1270.94H1314.39H1967.71H1991.51H2163.72C2188.1 463.552 2208.04 446.648 2208.04 425.985C2208.04 405.321 2188.1 388.409 2163.72 388.409H2091.31C2091.77 385.112 2092.01 381.767 2092.01 378.365C2092.01 331.32 2047.02 293.185 1991.51 293.185C1991.03 293.185 1990.56 293.193 1990.09 293.201C1991.02 288.536 1991.51 283.74 1991.51 278.856C1991.51 231.811 1946.52 193.677 1891.02 193.677C1863.36 193.677 1838.29 203.154 1820.12 218.495C1801.95 203.154 1776.88 193.677 1749.22 193.677C1731.5 193.677 1714.87 197.565 1700.42 204.385C1681.27 156.992 1628.25 122.915 1565.84 122.915C1502.99 122.915 1449.67 157.478 1430.85 205.397C1415.93 197.945 1398.54 193.668 1379.97 193.668Z" fill="#D7E5F5"/>
<path fill-rule="evenodd" clip-rule="evenodd" d="M129.19 463.544H252.778H311.872H1200.27H1232.66H1232.98H1270.66H1270.95H1314.4H1967.72H1991.52H2025.69C2015.03 460.28 2003.52 458.49 1991.52 458.49C1991.04 458.49 1990.57 458.498 1990.1 458.506C1991.03 453.84 1991.52 449.053 1991.52 444.161C1991.52 397.116 1946.53 358.981 1891.03 358.981C1863.37 358.981 1838.3 368.458 1820.13 383.8C1801.96 368.458 1776.89 358.981 1749.23 358.981C1731.51 358.981 1714.87 362.869 1700.43 369.69C1681.28 322.296 1628.26 288.22 1565.85 288.22C1503 288.22 1449.68 322.782 1430.86 370.702C1415.93 363.258 1398.54 358.981 1379.98 358.981C1339.95 358.981 1305.36 378.835 1289.22 407.557C1271.97 400.907 1252.82 397.189 1232.65 397.189C1232 397.189 1231.35 397.205 1230.71 397.213C1231.98 390.871 1232.65 384.351 1232.65 377.7C1232.65 313.727 1171.47 261.87 1095.99 261.87C1058.37 261.87 1024.3 274.758 999.579 295.615C974.868 274.758 940.801 261.87 903.169 261.87C879.078 261.87 856.45 267.16 836.803 276.434C810.753 211.983 738.663 165.651 653.805 165.651C568.336 165.651 495.825 212.647 470.244 277.811C449.947 267.686 426.296 261.87 401.049 261.87C325.576 261.87 264.389 313.727 264.389 377.7C264.389 384.545 265.096 391.252 266.443 397.764C261.942 397.384 257.394 397.189 252.778 397.189C198.185 397.189 151.083 424.324 129.19 463.544Z" fill="white"/>
</svg>
